<?xml version="1.0" encoding="UTF-8" standalone="no"?>
<svg width="101px" height="101px" viewBox="0 0 101 101" version="1.1" xmlns="http://www.w3.org/2000/svg" xmlns:xlink="http://www.w3.org/1999/xlink">
    <!-- Generator: Sketch 39.1 (31720) - http://www.bohemiancoding.com/sketch -->
    <title>Group 5</title>
    <desc>Created with Sketch.</desc>
    <defs></defs>
    <g id="Page-1" stroke="none" stroke-width="1" fill="none" fill-rule="evenodd">
        <g id="Group-5" transform="translate(1.000000, 1.000000)">
            <circle id="Oval" stroke="#06BBB9" stroke-width="2" cx="49.5" cy="49.5" r="49.5"></circle>
            <g id="noun_324647_cc" transform="translate(21.000000, 23.000000)" fill="#06BBB9">
                <g id="Group">
                    <g>
                        <path d="M55.5889035,44.3832424 C52.9712847,39.8724398 47.1525459,38.3187446 42.6170447,40.9267329 C42.4891859,41.0007184 42.3799247,41.0932003 42.2567153,41.1718099 C42.2032471,41.1926183 42.1474541,41.1972424 42.0963106,41.227299 C41.7685271,41.4099507 41.4732894,41.4446313 41.1269082,41.3475254 C40.1389082,41.0515835 39.0672188,39.7036604 38.4209506,38.6331829 C38.4116518,38.6146865 38.4116518,38.5938781 38.4023529,38.5753817 L24.8469929,15.2283367 L24.8516424,15.2283367 L23.6520941,13.1683033 L19.9139671,6.75699855 C19.6721976,6.34083019 19.2235294,6.08419303 18.7399906,6.08650508 L3.12261647,6.14661829 L3.12261647,5.59403919 C3.12261647,4.02878374 4.39888,2.75947025 5.97270588,2.75947025 L47.7732424,2.75947025 C49.3470682,2.75947025 50.6233318,4.02878374 50.6233318,5.59403919 L50.6233318,6.15586647 L47.9964141,6.15586647 L22.8012518,5.84605225 C22.3246871,5.81830769 21.9899294,6.30846154 22.1945035,6.73850218 L29.4638588,18.874434 C29.6823812,19.2328012 30.0659576,19.4316372 30.4588329,19.4316372 C30.6657318,19.4316372 30.8726306,19.3784601 31.0609318,19.2651698 C31.6095624,18.9345472 31.78624,18.2247489 31.4538071,17.6767939 L29.9613459,15.2237126 L47.9987388,15.2237126 L50.6256565,15.2237126 L50.6256565,28.5711567 C50.6256565,30.1364122 49.3493929,31.4057257 47.7755671,31.4057257 L39.8785412,31.4057257 L38.2326494,28.8116096 C37.8909176,28.2682787 37.1702588,28.1133716 36.6309271,28.4509303 C36.0892706,28.7908012 35.9242165,29.5052235 36.2682729,30.0439303 L39.7204612,35.4864877 C39.9413082,35.8356067 40.3202353,36.0251945 40.7038118,36.0251945 C40.9176847,36.0251945 41.1315576,35.9697054 41.3245082,35.8471669 C41.8661647,35.5072961 42.0312188,34.7928737 41.6871624,34.2541669 L41.3454306,33.7177721 L47.7755671,33.7177721 C50.6326306,33.7177721 52.9503624,31.4149739 52.9503624,28.5711567 L52.9503624,5.59403919 C52.9503624,2.75253411 50.6349553,0.449735849 47.7778918,0.449735849 L5.97038118,0.449735849 C3.11331765,0.449735849 0.797910588,2.75253411 0.797910588,5.59403919 L0.797910588,6.15817852 L0.732818824,6.15817852 L0.732818824,15.6491292 L0.797910588,15.6491292 L0.797910588,28.5757808 C0.797910588,31.4172859 3.11331765,33.7200842 5.97038118,33.7200842 L23.7822776,33.7200842 C24.4517929,34.5778534 25.1096847,35.3616372 25.7536282,36.0760595 L24.3006871,38.5753817 C24.2890635,38.5961901 24.2890635,38.6193106 24.27744,38.640119 C23.6311718,39.7105965 22.5641318,41.0515835 21.5784565,41.3475254 C21.2344,41.4469434 20.9368376,41.4099507 20.6090541,41.227299 C20.5579106,41.1972424 20.4997929,41.1926183 20.4463247,41.1718099 C20.3231153,41.0932003 20.2138541,40.9984064 20.0859953,40.9267329 C15.5504941,38.3187446 9.73175529,39.8747518 7.11413647,44.3832424 C5.84484706,46.5681263 5.50776471,49.1136894 6.16565647,51.5505864 C6.82122353,53.9874833 8.39272471,56.0267083 10.5895718,57.2844615 C12.0820329,58.1399187 13.7116518,58.5491509 15.3203482,58.5491509 C18.6028329,58.5468389 21.7993035,56.8567329 23.5567812,53.8348882 C23.5567812,53.8325762 23.5591059,53.8325762 23.5614306,53.8302642 L31.0539576,40.977598 C31.0795294,40.9960943 31.1120753,41.0238389 31.1376471,41.0423353 C31.8118118,41.5371132 32.37904,42.1775501 32.8277082,42.9474615 L39.1439341,53.8279521 C40.9014118,56.8544209 44.1002071,58.5491509 47.3850165,58.5468389 C48.9937129,58.5468389 50.6256565,58.1399187 52.1157929,57.2844615 C54.31264,56.0243962 55.8841412,53.9851713 56.5397082,51.5505864 C57.1952753,49.1136894 56.8558682,46.5681263 55.5889035,44.3832424 L55.5889035,44.3832424 Z M47.9964141,12.9139782 L47.9964141,8.47022496 L50.2002353,8.47022496 L50.3118212,12.9139782 L47.9964141,12.9139782 L47.9964141,12.9139782 Z M5.97270588,31.4057257 C4.40120471,31.4057257 3.12261647,30.1341001 3.12261647,28.5734688 L3.12261647,15.6606894 C6.17960471,15.6768737 13.9999153,15.7208026 16.1153976,15.7300508 C16.1711906,18.9784761 17.1731388,23.209521 20.2231529,28.4648026 C20.8368753,29.5214078 21.4622212,30.4855312 22.0922165,31.4057257 L5.97270588,31.4057257 L5.97270588,31.4057257 Z M21.5482353,52.6696168 C21.5482353,52.6696168 21.5482353,52.6719289 21.5459106,52.6742409 C19.5652612,56.0775733 15.1715671,57.2474688 11.7496,55.2845414 C10.08976,54.3319782 8.90183529,52.7921553 8.40667294,50.9517663 C7.90918588,49.1113774 8.16490353,47.1900668 9.12268235,45.5392656 C11.1010071,42.1313091 15.4947012,40.9614136 18.9213176,42.9266531 C20.2324518,43.6803803 21.2553224,44.8040348 21.8736941,46.1681422 C22.1363859,46.75309 22.8314729,47.0097271 23.4103247,46.7484659 C23.9961506,46.4872046 24.2565176,45.8028389 23.9938259,45.2202032 C23.6799906,44.5289013 23.2685176,43.9023367 22.8082259,43.3150769 C25.0236706,42.2792801 26.5207812,39.4215907 26.6951341,39.0701597 L26.6951341,39.0678476 L27.4157929,37.8262787 C28.0574118,38.4597794 28.6618353,39.0192946 29.2244141,39.5025123 L21.5482353,52.6696168 L21.5482353,52.6696168 Z M54.2917176,50.9517663 C53.7965553,52.7921553 52.6086306,54.3319782 50.9487906,55.2845414 C47.5268235,57.2474688 43.1308047,56.0775733 41.1501553,52.6719289 L34.8339294,41.7914383 C34.2271812,40.7463933 33.4484047,39.8678157 32.5185224,39.1811379 C30.3077271,37.5557692 26.0325929,33.8472467 22.2340235,27.3087794 C17.0406306,18.3565356 18.2959718,12.9232264 19.4420518,10.5441306 L36.0172047,39.0932801 C36.2194541,39.4978882 37.7026165,42.2885283 39.8901647,43.3127649 C39.4298729,43.9000247 39.0160753,44.5265893 38.7045647,45.2202032 C38.4418729,45.8028389 38.70224,46.4872046 39.2880659,46.7484659 C39.8669176,47.0097271 40.5620047,46.75309 40.8246965,46.1681422 C41.4430682,44.8017228 42.4636141,43.6803803 43.7770729,42.9266531 C47.19904,40.9637257 51.5950588,42.1336212 53.5757082,45.5392656 C54.5334871,47.1900668 54.7892047,49.1113774 54.2917176,50.9517663 L54.2917176,50.9517663 Z" id="Shape"></path>
                        <path d="M48.6054871,44.4988447 C47.3640941,44.1705341 46.0738824,44.3393135 44.9696471,44.9774383 C42.6821365,46.2906807 41.8940612,49.2131074 43.2144941,51.4881611 C44.1025318,53.0164238 45.7158776,53.8695689 47.3733929,53.8695689 C48.18704,53.8695689 49.0099859,53.6637968 49.7631906,53.2337562 C50.8720753,52.5979434 51.6648,51.5690827 51.9972329,50.336762 C52.3296659,49.1067533 52.1576376,47.8212554 51.5160188,46.7207213 C50.8744,45.6155631 49.8422306,44.8271553 48.6054871,44.4988447 L48.6054871,44.4988447 Z M49.7515671,49.740254 C49.5795388,50.3714427 49.1727153,50.9032134 48.6008376,51.2315239 C48.0312847,51.5598345 47.3664188,51.6500044 46.7248,51.4766009 C46.0878306,51.3055094 45.5554729,50.8985893 45.2253647,50.3321379 C44.5442259,49.1599303 44.9510494,47.6547881 46.1296753,46.9773585 C46.5109271,46.7577141 46.9340235,46.6467358 47.3594447,46.6467358 C47.5756424,46.6467358 47.79184,46.6744804 48.0010635,46.7299695 C48.6380329,46.901061 49.1703906,47.3079811 49.5028235,47.8744325 C49.8329318,48.445508 49.9212706,49.1067533 49.7515671,49.740254 L49.7515671,49.740254 Z" id="Shape"></path>
                        <path d="M17.7310682,44.9774383 C16.6221835,44.3393135 15.3319718,44.1705341 14.0952282,44.4988447 C12.8584847,44.8294673 11.8239906,45.6155631 11.1846965,46.7207213 C11.1846965,46.7207213 11.1846965,46.7207213 11.1823718,46.7207213 C10.5454024,47.8258795 10.3733741,49.1090653 10.7058071,50.339074 C11.03824,51.5690827 11.8309647,52.5979434 12.9398494,53.2314441 C13.6767812,53.6568607 14.4997271,53.871881 15.3296471,53.871881 C15.7457694,53.871881 16.1618918,53.8187039 16.5756894,53.7100377 C17.8124329,53.3794151 18.8469271,52.5933193 19.4862212,51.4881611 C20.8113035,49.2131074 20.0232282,46.2906807 17.7310682,44.9774383 L17.7310682,44.9774383 Z M17.4753506,50.3321379 C17.1429176,50.8985893 16.6128847,51.3055094 15.9735906,51.4766009 C15.3435953,51.6453803 14.67408,51.5598345 14.0998776,51.2292119 C13.528,50.9032134 13.1211765,50.3737547 12.9491482,49.7379419 C12.7794447,49.1067533 12.8654588,48.4431959 13.1932424,47.8744325 C13.8767059,46.704537 15.3831153,46.3022409 16.5663906,46.9750464 C17.1382682,47.3056691 17.5474165,47.8328157 17.71712,48.4686284 C17.8868235,49.1044412 17.8054588,49.7656865 17.4753506,50.3321379 L17.4753506,50.3321379 Z" id="Shape"></path>
                        <ellipse id="Oval" cx="31.2097129" cy="35.0772554" rx="1.15072941" ry="1.14446299"></ellipse>
                    </g>
                </g>
            </g>
        </g>
    </g>
</svg>