<?xml version="1.0" encoding="UTF-8" standalone="no"?>
<svg width="101px" height="101px" viewBox="0 0 101 101" version="1.1" xmlns="http://www.w3.org/2000/svg" xmlns:xlink="http://www.w3.org/1999/xlink">
    <!-- Generator: Sketch 39.1 (31720) - http://www.bohemiancoding.com/sketch -->
    <title>Group 4</title>
    <desc>Created with Sketch.</desc>
    <defs></defs>
    <g id="Page-1" stroke="none" stroke-width="1" fill="none" fill-rule="evenodd">
        <g id="Group-4" transform="translate(1.000000, 1.000000)">
            <circle id="Oval" stroke="#06BBB9" stroke-width="2" cx="49.5" cy="49.5" r="49.5"></circle>
            <g id="mortarboard" transform="translate(17.000000, 24.000000)" fill="#06BBB9">
                <g id="Group">
                    <path d="M65.684794,12.5243808 L38.234909,0.837350332 C35.821618,-0.190048502 33.0521173,-0.189243961 30.6358569,0.839361684 L3.19191095,12.5237104 C1.6019924,13.2004634 0.614215518,14.6883279 0.614215518,16.4065592 C0.614215518,18.123852 1.60131751,19.6109119 3.1902912,20.2873968 L6.43437834,21.6686595 C6.43100386,21.7019139 6.42924913,21.7357046 6.42924913,21.7697635 L6.42924913,37.0203742 C5.17529351,37.4411491 4.2695839,38.6200698 4.2695839,40.0060258 C4.2695839,40.809494 4.57436666,41.5433695 5.07446414,42.1006482 C4.52131988,42.6392884 4.15404181,43.3695434 4.07818357,44.1970138 L3.30097405,52.690553 C3.24792727,53.2707611 3.44432183,53.8500306 3.83967554,54.2801919 C4.23502926,54.7103531 4.79816197,54.957079 5.38451108,54.957079 L9.49853837,54.957079 C10.0848875,54.957079 10.6480202,54.7103531 11.0433739,54.2801919 C11.4388626,53.8500306 11.6351222,53.270627 11.5820754,52.690553 L10.8048659,44.1970138 C10.7291426,43.3696775 10.3617296,42.6394225 9.80858531,42.1006482 C10.3086828,41.5435036 10.6134655,40.8096281 10.6134655,40.0060258 C10.6134655,38.6202039 9.70775594,37.4412832 8.45380031,37.0203742 L8.45380031,22.5284457 L13.9930717,24.8868235 C13.9896972,24.9200778 13.9879425,24.9537345 13.9879425,24.9877934 L13.9879425,32.6661984 C13.9879425,35.8708192 16.1967401,38.8354186 20.2076434,41.0141156 C24.0251216,43.0876859 29.0787383,44.2297318 34.4372726,44.2297318 C39.795807,44.2297318 44.8494237,43.0876859 48.6669019,41.0141156 C52.6776702,38.8354186 54.8866028,35.8708192 54.8866028,32.6661984 L54.8866028,24.9877934 C54.8866028,24.9537345 54.8848481,24.9200778 54.8814736,24.8869575 L65.6830392,20.2882013 C67.2729578,19.6113141 68.2607347,18.1233156 68.2607347,16.4052183 C68.2608697,14.6879256 67.2737677,13.2008657 65.684794,12.5243808 L65.684794,12.5243808 Z M9.54834565,52.9238699 C9.52836874,52.9457266 9.50663711,52.9457266 9.49853837,52.9457266 L5.38451108,52.9457266 C5.37627735,52.9457266 5.3546807,52.9457266 5.3347038,52.9238699 C5.31459192,52.9020132 5.3166166,52.8806928 5.3172915,52.8726474 L6.09450102,44.3791083 C6.15834613,43.6825099 6.73740637,43.1571446 7.44159221,43.1571446 C8.14564308,43.1571446 8.72470332,43.6825099 8.78854842,44.3791083 L9.56575795,52.8725133 C9.56656782,52.8806928 9.56845753,52.9020132 9.54834565,52.9238699 L9.54834565,52.9238699 Z M7.44159221,41.1457922 C6.80894528,41.1457922 6.29427006,40.6345064 6.29427006,40.0060258 C6.29427006,39.3775452 6.80894528,38.8662594 7.44159221,38.8662594 C8.07423915,38.8662594 8.58891437,39.3775452 8.58891437,40.0060258 C8.58891437,40.6345064 8.07423915,41.1457922 7.44159221,41.1457922 L7.44159221,41.1457922 Z M52.8620516,28.3754472 C52.8620516,30.9759919 50.7075156,33.5149891 46.9509129,35.3414313 C46.4486558,35.5856094 46.240923,36.1879425 46.4867199,36.6867579 C46.6623276,37.0434377 47.0223168,37.250607 47.3967488,37.250607 C47.5461706,37.250607 47.6977521,37.2176208 47.8410999,37.1478939 C49.9247719,36.1348428 51.5941931,34.9006769 52.7844387,33.5283981 C52.4048775,35.6491682 50.6321973,37.6544866 47.6958624,39.2494891 C44.1710188,41.1641625 39.4625437,42.2185135 34.4375426,42.2185135 C29.4125415,42.2185135 24.7040664,41.1641625 21.1792228,39.2494891 C18.2535513,37.6602525 16.4826258,35.6636499 16.0944259,33.5513276 C17.1177023,34.7231415 18.4984033,35.7947901 20.2077783,36.7233645 C24.0252566,38.7969348 29.0788732,39.9389807 34.4374076,39.9389807 C35.9364852,39.9389807 37.4316485,39.8483357 38.8813238,39.6697276 C39.4362227,39.6013417 39.8302267,39.099174 39.7613873,38.5479293 C39.692548,37.9966847 39.1877263,37.6051414 38.6321524,37.6736615 C37.2648143,37.8422128 35.8534731,37.9276282 34.4374076,37.9276282 C29.4124065,37.9276282 24.7039314,36.8732773 21.1790878,34.9586038 C17.8475342,33.148923 16.0127636,30.811061 16.0127636,28.3754472 L16.0127636,25.7467437 L30.6401762,31.9745613 C31.8460793,32.4879926 33.1407986,32.7446411 34.4361928,32.7446411 C35.7330718,32.7446411 37.0304907,32.4873221 38.2392283,31.9726841 L52.8620516,25.7470119 L52.8620516,28.3754472 L52.8620516,28.3754472 Z M64.8855829,18.4395002 L37.4415019,30.1237148 C35.5323579,30.9365694 33.3440771,30.9372398 31.4377676,30.1257262 L10.4633688,21.1957235 L29.6815548,17.8753829 C30.5459608,18.8916522 32.3075728,19.5571417 34.4374076,19.5571417 C37.4770014,19.5571417 39.7690812,18.2024288 39.7690812,16.4060229 C39.7690812,14.609617 37.4770014,13.254904 34.4374076,13.254904 C31.6768155,13.254904 29.5330778,14.3724115 29.1628302,15.9232983 L7.2681441,19.7059818 C7.20389406,19.7171113 7.14247858,19.7344089 7.0836277,19.7565338 L3.98801755,18.4384275 C3.1431835,18.0790658 2.63890167,17.319311 2.63890167,16.4065592 C2.63890167,15.4928689 3.1438584,14.7323095 3.98950232,14.3722774 L31.4334483,2.68792868 C32.3889651,2.28123321 33.4141312,2.07781844 34.4390274,2.07781844 C35.4621688,2.07781844 36.4850402,2.28056276 37.4373176,2.68591733 L64.8872026,14.3729478 C65.7319017,14.7325776 66.2361835,15.4923325 66.2361835,16.4050842 C66.2361835,17.3190428 65.7312268,18.0794681 64.8855829,18.4395002 L64.8855829,18.4395002 Z M31.1304202,16.406157 C31.1304202,16.11317 32.267484,15.2663906 34.4374076,15.2663906 C36.6073313,15.2663906 37.744395,16.11317 37.744395,16.406157 C37.744395,16.699144 36.6073313,17.5459234 34.4374076,17.5459234 C32.267484,17.5459234 31.1304202,16.6990099 31.1304202,16.406157 L31.1304202,16.406157 Z" id="Shape" stroke="#06BBB9"></path>
                    <path d="M43.8028884,39.3505182 C43.8864044,39.3505182 43.9712649,39.3411679 44.0561255,39.3217251 C44.901743,39.1275937 45.7348108,38.9022944 46.5321713,38.6516156 C47.1221614,38.4662409 47.4492032,37.8408054 47.2625996,37.2547007 C47.075996,36.6685961 46.4465637,36.3434112 45.8562749,36.5289343 C45.115239,36.7618029 44.3398406,36.9715182 43.551743,37.1524404 C42.948755,37.2907664 42.5728586,37.8884477 42.7121016,38.4874647 C42.8319223,39.0023285 43.2929781,39.3505182 43.8028884,39.3505182 L43.8028884,39.3505182 Z" id="Shape"></path>
                </g>
            </g>
        </g>
    </g>
</svg>