<?xml version="1.0" encoding="UTF-8" standalone="no"?>
<svg width="285px" height="214px" viewBox="0 0 285 214" version="1.1" xmlns="http://www.w3.org/2000/svg" xmlns:xlink="http://www.w3.org/1999/xlink">
    <!-- Generator: Sketch 39.1 (31720) - http://www.bohemiancoding.com/sketch -->
    <title>law</title>
    <desc>Created with Sketch.</desc>
    <defs></defs>
    <g id="Page-1" stroke="none" stroke-width="1" fill="none" fill-rule="evenodd">
        <g id="law" transform="translate(0.720743, 0.000000)" fill="#00BBBA">
            <g id="Capa_1">
                <g id="Group">
                    <path d="M97.1946397,9.86777778 L159.294987,45.8019444 C161.017875,46.7885393 163.207555,46.1931803 164.20055,44.4836496 L165.991335,41.3707726 C166.984329,39.6612419 166.39023,37.4584137 164.684316,36.4633137 L102.575482,0.529147009 C100.861081,-0.465952991 98.6629136,0.129405983 97.6784062,1.83893675 L95.8876213,4.95181368 C94.8946268,6.66984957 95.480239,8.87267778 97.1946397,9.86777778 L97.1946397,9.86777778 Z" id="Shape"></path>
                    <path d="M43.411682,103.22857 L105.520517,139.171242 C107.234917,140.157837 109.433085,139.570983 110.417592,137.861452 L112.208377,134.75708 C113.201371,133.04755 112.615759,130.836216 110.901358,129.849621 L48.7925239,93.9154547 C47.0781232,92.9203547 44.8799559,93.5157137 43.8954485,95.2252444 L42.1046636,98.3381214 C41.103182,100.030642 41.6887941,102.23347 43.411682,103.22857 L43.411682,103.22857 Z" id="Shape"></path>
                    <path d="M262.422132,147.140547 L138.119592,82.5781188 L154.830756,53.5756316 C155.815263,51.8661009 155.229651,49.6547675 153.532224,48.6681726 L97.6189963,16.3231701 C95.9130827,15.3365752 93.7064283,15.9319342 92.721921,17.641465 L53.2737298,86.107747 C52.2977096,87.8172778 52.8833217,90.0286111 54.5892353,91.015206 L110.493976,123.351703 C112.19989,124.346803 114.406544,123.751444 115.382564,122.041914 L132.102215,93.0394265 L250.039406,168.641511 C251.702884,169.704652 253.867103,169.177334 254.85161,167.459298 L263.822509,151.894914 C264.798529,150.202393 264.170482,148.059101 262.422132,147.140547 L262.422132,147.140547 Z" id="Shape"></path>
                    <path d="M282.027408,156.232529 L275.823314,152.643365 C274.125888,151.648265 271.910746,152.243624 270.926239,153.953155 L260.156068,172.621911 C259.180048,174.331442 259.76566,176.542775 261.471574,177.520865 L267.675667,181.110029 C269.381581,182.105129 271.579748,181.518275 272.572743,179.800239 L283.334426,161.131483 C284.327421,159.421952 283.741809,157.210619 282.027408,156.232529 L282.027408,156.232529 Z" id="Shape"></path>
                    <path d="M147.828871,178.388388 L140.351708,178.388388 C141.293779,177.333752 141.921827,175.972932 141.921827,174.442009 L141.921827,168.522439 C141.921827,165.264975 139.265355,162.594365 136.014783,162.594365 L17.7381066,162.594365 C14.4790478,162.594365 11.8225754,165.264975 11.8225754,168.522439 L11.8225754,174.442009 C11.8225754,175.972932 12.4506232,177.333752 13.401182,178.388388 L5.91553125,178.388388 C2.64798529,178.388388 0,181.067503 0,184.324968 L0,208.02876 C0,211.286224 2.65647243,213.956834 5.91553125,213.956834 L147.845846,213.956834 C151.113392,213.956834 153.75289,211.286224 153.75289,208.02876 L153.75289,184.307957 C153.75289,181.067503 151.096417,178.388388 147.828871,178.388388 L147.828871,178.388388 Z M139.418123,205.783406 L14.8694559,205.783406 C11.4491415,205.783406 8.64838787,202.976714 8.64838787,199.557652 L8.64838787,193.314888 C8.656875,189.895826 11.4491415,187.072124 14.8694559,187.089134 L139.418123,187.089134 C142.855412,187.089134 145.656165,189.895826 145.647678,193.306383 L145.656165,199.557652 C145.647678,202.976714 142.855412,205.783406 139.418123,205.783406 L139.418123,205.783406 Z" id="Shape"></path>
                </g>
            </g>
        </g>
    </g>
</svg>