<?xml version="1.0" encoding="UTF-8" standalone="no"?>
<svg width="169px" height="209px" viewBox="0 0 169 209" version="1.1" xmlns="http://www.w3.org/2000/svg" xmlns:xlink="http://www.w3.org/1999/xlink">
    <!-- Generator: Sketch 39.1 (31720) - http://www.bohemiancoding.com/sketch -->
    <title>male-telemarketer</title>
    <desc>Created with Sketch.</desc>
    <defs></defs>
    <g id="Page-1" stroke="none" stroke-width="1" fill="none" fill-rule="evenodd">
        <g id="male-telemarketer" transform="translate(-0.279257, 0.000000)" fill="#00BBBA">
            <g id="Capa_1">
                <g id="Group">
                    <path d="M44.3330101,92.8701978 C53.891151,113.936718 74.3543289,123.106664 84.5113423,123.106664 C91.1896779,123.106664 102.323829,119.139062 111.884238,110.43526 C108.388547,110.67881 104.652399,110.802285 100.659916,110.802285 C99.7230436,110.802285 98.7402349,110.793789 97.6899396,110.777363 C95.6772517,112.325322 93.1842181,113.198138 90.5970436,113.198138 L82.0903322,113.198138 C75.6796745,113.198138 70.4644933,107.989564 70.4644933,101.587027 C70.4644933,95.1844905 75.6796745,89.975916 82.0903322,89.975916 L90.5970436,89.975916 C93.6702349,89.975916 96.5443691,91.1721436 98.676151,93.235523 C99.3844765,93.2434526 100.082594,93.2468509 100.767668,93.2468509 C111.749265,93.2468509 118.986208,92.2409322 123.720477,91.0277127 C123.106292,89.5352602 122.771695,87.9023415 122.771695,86.1974905 L122.771695,56.7579431 C122.771695,53.6954417 123.909893,50.759813 125.877779,48.4919648 C124.827483,40.3273713 122.921413,34.094187 120.076768,29.496187 C114.215077,20.0209539 102.913628,15.6081653 84.5113423,15.6081653 C69.245198,15.6081653 58.7031141,18.7731843 52.2833826,25.2839024 C47.3069564,30.3310542 44.4231812,37.5327751 43.075151,48.409271 C45.0872718,50.6856152 46.2509899,53.6512629 46.2509899,56.7579431 L46.2509899,86.1974905 C46.251557,88.6471518 45.5466342,90.9331247 44.3330101,92.8701978 L44.3330101,92.8701978 Z" id="Shape"></path>
                    <path d="M23.4172752,93.1477317 L33.6219262,93.1477317 C37.463557,93.1477317 40.5804161,90.0359539 40.5804161,86.1974905 L40.5804161,56.7579431 C40.5804161,54.1933035 39.1858826,51.9588726 37.1170503,50.7547154 C39.3957148,26.6483496 48.7099966,9.94364228 84.5119094,9.94364228 C105.071497,9.94364228 117.905856,15.211122 124.901775,26.5192114 C128.97252,33.0995962 130.930765,41.5989295 131.84552,50.7909648 C129.809581,52.0036179 128.442836,54.2182249 128.442836,56.7573767 L128.442836,86.1969241 C128.442836,89.506374 130.761198,92.2698184 133.862745,92.9704499 C129.364396,95.9089106 120.051248,98.9102412 100.767668,98.9102412 C99.2058356,98.9102412 97.577651,98.8904173 95.8819799,98.8496369 C94.8895302,96.9437154 92.8978255,95.6393062 90.5976107,95.6393062 L82.0914664,95.6393062 C78.8033389,95.6393062 76.1367685,98.3019322 76.1367685,101.586461 C76.1367685,104.870989 78.8033389,107.533615 82.0914664,107.533615 L90.5976107,107.533615 C92.5847785,107.533615 94.3405638,106.557715 95.4214832,105.06413 C97.2124295,105.109442 98.9659463,105.137762 100.660483,105.137762 C122.396832,105.137195 136.214567,101.431835 141.810849,94.080019 C142.049037,93.7673686 142.266242,93.4558509 142.464164,93.1477317 L145.607678,93.1477317 C149.449876,93.1477317 152.566168,90.0359539 152.566168,86.1974905 L152.566168,56.7579431 C152.566168,52.9200461 149.450443,49.8082683 145.607678,49.8082683 L141.76945,49.8082683 C140.689664,38.7023821 138.295876,29.2481057 133.372191,21.2913794 C124.509332,6.96440108 108.525789,0 84.5113423,0 C60.4951946,0 44.5133523,6.96440108 35.6499262,21.2919458 C30.7268087,29.2486721 28.3341544,38.7018157 27.253802,49.8088347 L23.4167081,49.8088347 C19.5733758,49.8088347 16.457651,52.9200461 16.457651,56.7585095 L16.457651,86.1980569 C16.457651,90.0359539 19.573943,93.1477317 23.4172752,93.1477317 L23.4172752,93.1477317 Z" id="Shape"></path>
                    <path d="M168.641584,179.716778 C166.327758,165.349019 161.564567,146.841474 152.01153,140.265621 C145.497658,135.779201 122.756383,123.644173 113.045688,118.462786 L112.841527,118.354038 C111.729983,117.761022 110.374013,117.879965 109.383265,118.656493 C104.288879,122.650149 98.7118792,125.340528 92.8076544,126.652867 C91.7641644,126.884523 90.907255,127.625935 90.5278557,128.623924 L84.5113423,144.460913 L78.4948289,128.623924 C78.1154295,127.625369 77.2585201,126.884523 76.2150302,126.652867 C70.3108054,125.340528 64.7326711,122.650149 59.6377181,118.656493 C58.6475369,117.879398 57.291,117.760455 56.1800235,118.354038 C46.5776477,123.477653 23.5420403,135.867558 17.0383758,140.246363 C6.03692953,147.648588 1.23233893,174.424943 0.381100671,179.717344 C0.296600671,180.242393 0.345372483,180.779336 0.522879195,181.28003 C0.916456376,182.390165 11.0076846,208.457393 84.5107752,208.457393 C158.012732,208.457393 168.105094,182.390165 168.499238,181.280596 C168.677312,180.77877 168.726084,180.24126 168.641584,179.716778 L168.641584,179.716778 Z M134.417383,163.217672 L105.305148,163.217672 L105.305148,157.094369 L134.417383,157.094369 L134.417383,163.217672 L134.417383,163.217672 Z" id="Shape"></path>
                </g>
            </g>
        </g>
    </g>
</svg>