<?xml version="1.0" encoding="UTF-8" standalone="no"?>
<svg width="238px" height="223px" viewBox="0 0 238 223" version="1.1" xmlns="http://www.w3.org/2000/svg" xmlns:xlink="http://www.w3.org/1999/xlink">
    <!-- Generator: Sketch 39.1 (31720) - http://www.bohemiancoding.com/sketch -->
    <title>pc-search</title>
    <desc>Created with Sketch.</desc>
    <defs></defs>
    <g id="Page-1" stroke="none" stroke-width="1" fill="none" fill-rule="evenodd">
        <g id="pc-search" transform="translate(0.720743, 0.000000)" fill="#00BBBA">
            <g id="Capa_1">
                <g id="Group">
                    <path d="M217.5091,0.037578714 L19.3528559,0.037578714 C8.68092902,0.037578714 0,8.71677827 0,19.3777605 L0,153.77012 C0,164.431102 8.68092902,173.110796 19.3528559,173.110796 L85.7836096,173.110796 L85.7836096,199.039614 L75.3011837,199.039614 C68.7275261,199.039614 63.4007161,204.366397 63.4007161,210.932288 C63.4007161,217.497191 68.7275261,222.824468 75.3011837,222.824468 L161.576605,222.824468 C168.150263,222.824468 173.476578,217.497685 173.476578,210.932288 C173.476578,204.366891 168.150263,199.039614 161.576605,199.039614 L151.09418,199.039614 L151.09418,173.110796 L217.5091,173.110796 C228.181027,173.110796 236.861956,164.431102 236.861956,153.77012 L236.861956,19.3777605 C236.861956,8.71677827 228.181027,0.037578714 217.5091,0.037578714 L217.5091,0.037578714 Z M189.242768,161.218616 C186.259735,161.218616 183.850647,158.810612 183.850647,155.837443 C183.850647,152.856858 186.26023,150.448854 189.242768,150.448854 C192.217885,150.448854 194.626973,152.856858 194.626973,155.837443 C194.626973,158.810612 192.217885,161.218616 189.242768,161.218616 L189.242768,161.218616 Z M213.042714,162.511126 C209.347196,162.511126 206.356741,159.522135 206.356741,155.837443 C206.356741,152.143851 209.347196,149.155355 213.042714,149.155355 C216.730315,149.155355 219.721265,152.143851 219.721265,155.837443 C219.721265,159.522135 216.730315,162.511126 213.042714,162.511126 L213.042714,162.511126 Z M220.995326,142.411953 L15.8666305,142.411953 L15.8666305,19.3777605 C15.8666305,17.4582794 17.4316221,15.8943126 19.3528559,15.8943126 L217.5091,15.8943126 C219.430829,15.8943126 220.994831,17.4582794 220.994831,19.3777605 L220.994831,142.411953 L220.995326,142.411953 Z" id="Shape"></path>
                </g>
            </g>
        </g>
    </g>
</svg>