<?xml version="1.0" encoding="UTF-8" standalone="no"?>
<svg width="768px" height="768px" viewBox="0 0 768 768" version="1.1" xmlns="http://www.w3.org/2000/svg" xmlns:xlink="http://www.w3.org/1999/xlink">
    <!-- Generator: Sketch 39.1 (31720) - http://www.bohemiancoding.com/sketch -->
    <title>Group 9</title>
    <desc>Created with Sketch.</desc>
    <defs>
        <linearGradient x1="50%" y1="0%" x2="50%" y2="100%" id="linearGradient-1">
            <stop stop-color="#CCCCCC" offset="0%"></stop>
            <stop stop-color="#F3F3F3" offset="100%"></stop>
        </linearGradient>
        <circle id="path-2" cx="383" cy="383" r="383"></circle>
    </defs>
    <g id="Page-1" stroke="none" stroke-width="1" fill="none" fill-rule="evenodd">
        <g id="Group-9" transform="translate(1.000000, 1.000000)">
            <g id="Oval-7">
                <use fill-opacity="0.200000003" fill="url(#linearGradient-1)" fill-rule="evenodd" style="mix-blend-mode: darken;" xlink:href="#path-2"></use>
                <use stroke="#979797" stroke-width="1" xlink:href="#path-2"></use>
            </g>
            <g id="Group-8" transform="translate(138.000000, 137.000000)">
                <g id="Group-5">
                    <path d="" id="Path-2" stroke="#979797"></path>
                    <g id="Group-2">
                        <ellipse id="Oval-2" fill="#05BBBA" cx="271.442731" cy="72.0059102" rx="71.7731278" ry="71.8451537"></ellipse>
                        <text id="$" transform="translate(279.982379, 61.160757) rotate(4.000000) translate(-279.982379, -61.160757) " font-family="OpenSans-Extrabold, Open Sans" font-size="70" font-weight="600" letter-spacing="-1.49438214" fill="#FFFFFF">
                            <tspan x="251.920705" y="88.1607565">$</tspan>
                        </text>
                        <g id="Group" transform="translate(0.000000, 97.394799)" fill="#2D3639">
                            <path d="M254.871981,330.570816 C365.427657,328.641059 453.771813,253.807018 452.194177,163.424306 C450.616541,73.0415949 359.714531,1.33630711 249.158856,3.2660636 C138.60318,5.19582009 50.2590241,80.0298613 51.8366602,170.412573 C53.4142963,260.795285 144.316306,332.500572 254.871981,330.570816 Z M123.215859,130.555556 C131.50013,130.555556 138.215859,123.839827 138.215859,115.555556 C138.215859,107.271284 131.50013,100.555556 123.215859,100.555556 C114.931588,100.555556 108.215859,107.271284 108.215859,115.555556 C108.215859,123.839827 114.931588,130.555556 123.215859,130.555556 Z" id="Combined-Shape"></path>
                            <rect id="Rectangle" x="115.484581" y="265.77305" width="62.5991189" height="91.8321513" rx="7"></rect>
                            <rect id="Rectangle" x="288.171806" y="265.77305" width="77.7092511" height="91.8321513" rx="7"></rect>
                            <path d="M84.5418548,138.055499 L84.5418548,223.050809 C84.5418548,228.718074 81.4592711,232.682582 77.6469453,231.903792 L7.61737187,217.597987 C3.80941851,216.82009 0.722462392,213.081153 0.722462392,209.258324 L0.722462392,151.847983 C0.722462392,148.020012 3.80504611,144.287111 7.61737187,143.50832 L77.6469453,129.202516 C81.4548987,128.424619 84.5418548,132.395847 84.5418548,138.055499 Z" id="Rectangle"></path>
                            <path d="M99.2951541,61.5815603 C99.2951541,61.5815603 84.185022,23.7683215 62.5991189,6.4822695 C41.0132159,-10.8037825 222.334802,15.1252955 222.334802,15.1252955" id="Path-3"></path>
                        </g>
                    </g>
                    <path d="M438.033449,202.670318 C446.07504,197.966841 449.721296,191.701966 453.865999,178.187263 C454.759273,175.274546 455.302171,172.243552 455.302171,169.178592 C455.302171,168.792742 455.308216,167.978197 455.308216,167.978197 C455.308216,167.978197 455.31157,167.678647 455.315633,167.352628 C455.318157,167.150159 455.320954,166.93748 455.323391,166.780003 C455.404872,161.515047 455.681862,154.37278 455.451705,146.656491 C455.257714,140.152694 454.703433,133.241098 453.368117,126.702103 C450.621801,113.253483 444.571761,101.380936 431.557678,97.8736277 C403.496004,90.31098 392.703052,111.918547 397.020233,127.04384 C401.337413,142.169134 428.319795,168.758861 438.03345,171.999998 C447.747106,175.241135 481.205252,189.705779 487.681026,147.571027 C494.1568,105.436276 486.601732,181.062755 457.460761,169.178592 L454.999999,166.999998 C454.999999,166.999998 461.402518,165.686642 453.972594,167.210751 C446.542669,168.734861 439.112744,170.258971 439.112744,170.258971 L426.999999,187.999998" id="Path-4" fill="#2D3639"></path>
                    <rect id="Rectangle-4" fill="#2D3639" x="438" y="161" width="17.3000984" height="15.6999998"></rect>
                </g>
                <path d="M438,151 C443.522847,151 434,118 424,112 C414,106 413,120 414,122 C415,124 432.477153,151 438,151 Z" id="Oval-8" fill="#FFFFFF"></path>
                <text id="401k" font-family="OpenSans-Bold, Open Sans" font-size="80" font-weight="bold" letter-spacing="3.39" fill="#FFFFFF">
                    <tspan x="211" y="334">4</tspan>
                    <tspan x="260.054062" y="334" letter-spacing="-1.70786536">01k</tspan>
                </text>
            </g>
        </g>
    </g>
</svg>