<?xml version="1.0" encoding="UTF-8" standalone="no"?>
<svg width="155px" height="215px" viewBox="0 0 155 215" version="1.1" xmlns="http://www.w3.org/2000/svg" xmlns:xlink="http://www.w3.org/1999/xlink">
    <!-- Generator: Sketch 39.1 (31720) - http://www.bohemiancoding.com/sketch -->
    <title>report</title>
    <desc>Created with Sketch.</desc>
    <defs></defs>
    <g id="Page-1" stroke="none" stroke-width="1" fill="none" fill-rule="evenodd">
        <g id="report" fill="#00BBBA">
            <g id="Layer_1">
                <g id="Group">
                    <path d="M101.615837,159.936191 C100.081698,159.936191 98.611,159.326544 97.5252791,158.240721 L76.8259302,137.525688 C73.6322093,142.28094 71.765,147.999362 71.765,154.147785 C71.765,170.619815 85.1555581,184.02052 101.615116,184.02052 C116.096442,184.02052 128.196535,173.647131 130.898581,159.936191 L101.615837,159.936191 L101.615837,159.936191 L101.615837,159.936191 Z" id="Shape"></path>
                    <path d="M101.615837,124.27505 C95.4727907,124.27505 89.7586977,126.142953 85.0070465,129.339815 L104.011488,148.359379 L130.899302,148.359379 C128.198698,134.64844 116.097884,124.27505 101.615837,124.27505 L101.615837,124.27505 Z" id="Shape"></path>
                    <path d="M148.694023,23.7748154 L124.857907,23.7748154 L124.857907,30.7882886 C124.857907,40.0296812 117.345093,47.5481879 108.110698,47.5481879 L46.8900233,47.5481879 C37.6556279,47.5481879 30.142814,40.0296812 30.142814,30.7882886 L30.142814,23.7748154 L6.30669767,23.7748154 C2.90462791,23.7748154 0.137697674,26.5438423 0.137697674,29.9477685 L0.137697674,208.10557 C0.137697674,211.510218 2.90462791,214.279245 6.30669767,214.279245 L148.694744,214.279245 C152.096814,214.279245 154.863744,211.510218 154.863744,208.10557 L154.863744,29.9477685 C154.863744,26.5438423 152.096093,23.7748154 148.694023,23.7748154 L148.694023,23.7748154 Z M18.1097674,65.1493289 L77.5,65.1493289 C80.6944419,65.1493289 83.2840233,67.7408725 83.2840233,70.9377349 C83.2840233,74.1345973 80.6944419,76.7261409 77.5,76.7261409 L18.1097674,76.7261409 C14.9153256,76.7261409 12.3257442,74.1345973 12.3257442,70.9377349 C12.3257442,67.7408725 14.9160465,65.1493289 18.1097674,65.1493289 L18.1097674,65.1493289 Z M53.743907,124.274329 L18.1097674,124.274329 C14.9153256,124.274329 12.3257442,121.682785 12.3257442,118.485923 C12.3257442,115.28906 14.9153256,112.697517 18.1097674,112.697517 L53.743907,112.697517 C56.9383488,112.697517 59.5279302,115.28906 59.5279302,118.485923 C59.5279302,121.682785 56.9383488,124.274329 53.743907,124.274329 L53.743907,124.274329 Z M53.743907,100.500235 L18.1097674,100.500235 C14.9153256,100.500235 12.3257442,97.9086913 12.3257442,94.7118289 C12.3257442,91.5149664 14.9153256,88.9234228 18.1097674,88.9234228 L53.743907,88.9234228 C56.9383488,88.9234228 59.5279302,91.5149664 59.5279302,94.7118289 C59.5279302,97.9079698 56.9383488,100.500235 53.743907,100.500235 L53.743907,100.500235 Z M101.615837,195.597332 C78.7782093,195.597332 60.1976744,177.002718 60.1976744,154.147785 C60.1976744,131.292131 78.7782093,112.697517 101.615837,112.697517 C124.454186,112.697517 143.034721,131.292131 143.034721,154.147785 C143.035442,177.002718 124.454907,195.597332 101.615837,195.597332 L101.615837,195.597332 Z" id="Shape"></path>
                    <path d="M46.8907442,35.9713758 L108.111419,35.9713758 C110.967744,35.9713758 113.290581,33.6467785 113.290581,30.7882886 L113.290581,17.0701342 C113.290581,14.2116443 110.967744,11.887047 108.111419,11.887047 L89.3794884,11.887047 C86.1850465,11.887047 83.5954651,9.29550336 83.5954651,6.09864094 C83.5954651,2.73583893 80.8616977,0 77.5014419,0 C74.141186,0 71.4074186,2.73583893 71.4074186,6.09864094 C71.4074186,9.29550336 68.8178372,11.887047 65.6233953,11.887047 L46.8914651,11.887047 C44.0351395,11.887047 41.7123023,14.2116443 41.7123023,17.0701342 L41.7123023,30.7882886 C41.7108605,33.6467785 44.0336977,35.9713758 46.8907442,35.9713758 L46.8907442,35.9713758 Z" id="Shape"></path>
                </g>
            </g>
        </g>
    </g>
</svg>