<?xml version="1.0" encoding="UTF-8" standalone="no"?>
<svg width="101px" height="101px" viewBox="0 0 101 101" version="1.1" xmlns="http://www.w3.org/2000/svg" xmlns:xlink="http://www.w3.org/1999/xlink">
    <!-- Generator: Sketch 39.1 (31720) - http://www.bohemiancoding.com/sketch -->
    <title>Group 2</title>
    <desc>Created with Sketch.</desc>
    <defs></defs>
    <g id="Page-1" stroke="none" stroke-width="1" fill="none" fill-rule="evenodd">
        <g id="Group-2" transform="translate(1.000000, 1.000000)">
            <circle id="Oval" stroke="#06BBB9" stroke-width="2" cx="49.5" cy="49.5" r="49.5"></circle>
            <g id="checked-list" transform="translate(28.000000, 20.000000)" fill="#06BBB9">
                <g id="Capa_1">
                    <g id="Group">
                        <path d="M34.519,4.149 L26.638,4.149 L26.638,2.81 C26.638,1.258 25.379,0 23.827,0 L17.427,0 C15.874,0 14.617,1.258 14.617,2.81 L14.617,4.149 L6.736,4.149 C3.161,4.149 0.252,7.058 0.252,10.632 L0.252,52.772 C0.252,56.345 3.161,59.253 6.736,59.253 L34.518,59.253 C38.092,59.253 41.001,56.345 41.001,52.772 L41.001,10.632 C41.003,7.058 38.096,4.149 34.519,4.149 L34.519,4.149 Z M20.628,1.268 C21.402,1.268 22.03,1.896 22.03,2.67 C22.03,3.443 21.402,4.071 20.628,4.071 C19.854,4.071 19.227,3.443 19.227,2.67 C19.226,1.896 19.853,1.268 20.628,1.268 L20.628,1.268 Z M13.042,8.131 L28.215,8.131 L28.215,14.052 L13.042,14.052 L13.042,8.131 L13.042,8.131 Z M34.521,55.548 L6.737,55.548 C5.204,55.548 3.957,54.302 3.957,52.772 L3.957,10.632 C3.957,9.1 5.204,7.853 6.737,7.853 L9.387,7.853 L9.387,14.473 C9.387,16.255 10.836,17.704 12.619,17.704 L28.637,17.704 C30.419,17.704 31.868,16.255 31.868,14.473 L31.868,7.853 L34.519,7.853 C36.05,7.853 37.296,9.1 37.296,10.632 L37.296,52.772 L37.298,52.772 C37.299,54.302 36.053,55.548 34.521,55.548 L34.521,55.548 Z" id="Shape"></path>
                        <path d="M14.233,23.929 L13.584,24.703 C13.365,24.145 12.825,23.748 12.19,23.748 L7.878,23.748 C7.051,23.748 6.378,24.421 6.378,25.248 L6.378,29.998 C6.378,30.825 7.051,31.498 7.878,31.498 L12.19,31.498 C13.017,31.498 13.69,30.825 13.69,29.998 L13.69,27.458 L15.652,25.118 C15.981,24.726 15.929,24.143 15.538,23.813 C15.145,23.488 14.562,23.539 14.233,23.929 L14.233,23.929 Z M12.691,29.999 L12.691,29.999 C12.69,30.274 12.465,30.499 12.19,30.499 L7.878,30.499 C7.603,30.499 7.378,30.273 7.378,29.999 L7.378,25.249 C7.378,24.974 7.603,24.749 7.878,24.749 L12.19,24.749 C12.465,24.749 12.69,24.974 12.69,25.249 L12.69,25.77 L11.441,27.259 C11.113,27.652 10.543,27.686 10.169,27.338 L9.399,26.625 C9.026,26.276 8.436,26.298 8.091,26.673 C7.742,27.047 7.765,27.633 8.14,27.982 L10.3,29.989 C10.471,30.149 10.698,30.236 10.93,30.236 C10.95,30.236 10.967,30.236 10.989,30.235 C11.242,30.218 11.477,30.099 11.64,29.906 L12.691,28.653 L12.691,29.999 L12.691,29.999 Z" id="Shape"></path>
                        <path d="M14.233,34.002 L13.516,34.856 C13.267,34.375 12.769,34.041 12.19,34.041 L7.878,34.041 C7.051,34.041 6.378,34.715 6.378,35.541 L6.378,40.291 C6.378,41.118 7.051,41.791 7.878,41.791 L12.19,41.791 C13.017,41.791 13.69,41.118 13.69,40.291 L13.69,37.532 L15.652,35.192 C15.981,34.8 15.929,34.216 15.538,33.886 C15.145,33.559 14.562,33.611 14.233,34.002 L14.233,34.002 Z M12.691,40.291 L12.691,40.291 C12.69,40.566 12.465,40.791 12.19,40.791 L7.878,40.791 C7.603,40.791 7.378,40.566 7.378,40.291 L7.378,35.541 C7.378,35.267 7.603,35.041 7.878,35.041 L12.19,35.041 C12.465,35.041 12.69,35.267 12.69,35.541 L12.69,35.842 L11.441,37.332 C11.113,37.723 10.543,37.76 10.169,37.41 L9.399,36.697 C9.026,36.347 8.436,36.37 8.091,36.745 C7.742,37.12 7.765,37.707 8.14,38.055 L10.3,40.062 C10.471,40.223 10.698,40.31 10.93,40.31 C10.95,40.31 10.967,40.31 10.989,40.307 C11.242,40.291 11.477,40.172 11.64,39.979 L12.691,38.726 L12.691,40.291 L12.691,40.291 Z" id="Shape"></path>
                        <path d="M14.233,44.127 L13.489,45.014 C13.231,44.561 12.749,44.25 12.19,44.25 L7.878,44.25 C7.051,44.25 6.378,44.922 6.378,45.75 L6.378,50.5 C6.378,51.326 7.051,52 7.878,52 L12.19,52 C13.017,52 13.69,51.326 13.69,50.5 L13.69,47.655 L15.652,45.315 C15.981,44.923 15.929,44.339 15.538,44.009 C15.145,43.683 14.562,43.735 14.233,44.127 L14.233,44.127 Z M12.691,50.5 L12.691,50.5 C12.69,50.774 12.465,51 12.19,51 L7.878,51 C7.603,51 7.378,50.774 7.378,50.5 L7.378,45.75 C7.378,45.475 7.603,45.25 7.878,45.25 L12.19,45.25 C12.465,45.25 12.69,45.475 12.69,45.75 L12.69,45.967 L11.441,47.455 C11.113,47.848 10.543,47.883 10.169,47.535 L9.399,46.821 C9.026,46.472 8.436,46.494 8.091,46.869 C7.742,47.244 7.765,47.83 8.14,48.178 L10.3,50.186 C10.471,50.346 10.698,50.434 10.93,50.434 C10.95,50.434 10.967,50.434 10.989,50.432 C11.242,50.416 11.477,50.297 11.64,50.103 L12.691,48.85 C12.691,48.85 12.691,50.5 12.691,50.5 L12.691,50.5 Z" id="Shape"></path>
                        <path d="M34.236,26.993 L19.265,26.993 C18.752,26.993 18.338,27.406 18.338,27.918 C18.338,28.432 18.752,28.845 19.265,28.845 L34.237,28.845 C34.75,28.845 35.164,28.432 35.164,27.918 C35.163,27.406 34.749,26.993 34.236,26.993 L34.236,26.993 Z" id="Shape"></path>
                        <path d="M34.236,36.063 L19.265,36.063 C18.752,36.063 18.338,36.477 18.338,36.99 C18.338,37.502 18.752,37.916 19.265,37.916 L34.237,37.916 C34.75,37.916 35.164,37.502 35.164,36.99 C35.163,36.477 34.749,36.063 34.236,36.063 L34.236,36.063 Z" id="Shape"></path>
                        <path d="M34.236,45.134 L19.265,45.134 C18.752,45.134 18.338,45.548 18.338,46.062 C18.338,46.573 18.752,46.987 19.265,46.987 L34.237,46.987 C34.75,46.987 35.164,46.573 35.164,46.062 C35.163,45.548 34.749,45.134 34.236,45.134 L34.236,45.134 Z" id="Shape"></path>
                    </g>
                </g>
            </g>
        </g>
    </g>
</svg>