<?xml version="1.0" encoding="UTF-8" standalone="no"?>
<svg width="550px" height="473px" viewBox="0 0 550 473" version="1.1" xmlns="http://www.w3.org/2000/svg" xmlns:xlink="http://www.w3.org/1999/xlink">
    <!-- Generator: Sketch 39.1 (31720) - http://www.bohemiancoding.com/sketch -->
    <title>Group 13</title>
    <desc>Created with Sketch.</desc>
    <defs></defs>
    <g id="Page-1" stroke="none" stroke-width="1" fill="none" fill-rule="evenodd">
        <g id="Group-13">
            <g id="notes" transform="translate(318.500000, 165.500000) scale(-1, 1) translate(-318.500000, -165.500000) translate(87.000000, 0.000000)">
                <g id="Capa_1">
                    <g id="XMLID_80_">
                        <rect id="XMLID_115_" fill="#56B46F" x="0" y="66.2" width="463" height="264.8"></rect>
                        <polygon id="XMLID_114_" fill="#74BE86" points="429.928571 66.2 16.5357143 66.2 16.5357143 33.1"></polygon>
                        <path d="M338.982143,198.6 C338.982143,258.0145 290.863214,306.175 231.5,306.175 C172.136786,306.175 124.017857,258.0145 124.017857,198.6 C124.017857,139.1855 172.136786,91.025 231.5,91.025 C290.863214,91.025 338.982143,139.1855 338.982143,198.6" id="XMLID_79_" fill="#56B46F"></path>
                        <path d="M174.402179,289.625 C144.174893,270.584225 124.017857,236.987725 124.017857,198.6 C124.017857,160.212275 144.174893,126.615775 174.402179,107.575 L90.7397321,107.575 C90.86375,108.940375 90.9464286,110.314025 90.9464286,111.7125 C90.9464286,136.85195 70.5826964,157.225 45.4732143,157.225 C44.0759464,157.225 42.7034821,157.14225 41.3392857,157.018125 L41.3392857,240.181875 C42.7034821,240.05775 44.0759464,239.975 45.4732143,239.975 C70.5826964,239.975 90.9464286,260.34805 90.9464286,285.4875 C90.9464286,286.885975 90.86375,288.259625 90.7397321,289.625 L174.402179,289.625 L174.402179,289.625 Z" id="XMLID_112_" fill="#EAEAD7"></path>
                        <path d="M417.526786,157.225 C392.409036,157.225 372.053571,136.85195 372.053571,111.7125 C372.053571,110.314025 372.13625,108.940375 372.260268,107.575 L288.597821,107.575 C318.825107,126.615775 338.982143,160.212275 338.982143,198.6 C338.982143,236.987725 318.825107,270.584225 288.597821,289.625 L372.260268,289.625 C372.13625,288.259625 372.053571,286.885975 372.053571,285.4875 C372.053571,260.34805 392.409036,239.975 417.526786,239.975 C418.924054,239.975 420.296518,240.05775 421.660714,240.181875 L421.660714,157.018125 C420.296518,157.14225 418.924054,157.225 417.526786,157.225" id="XMLID_111_" fill="#EAEAD7"></path>
                        <path d="M45.4732143,132.4 C34.0718393,132.4 24.8035714,123.123725 24.8035714,111.7125 C24.8035714,100.301275 34.0718393,91.025 45.4732143,91.025 C56.8745893,91.025 66.1428571,100.301275 66.1428571,111.7125 C66.1428571,123.123725 56.8745893,132.4 45.4732143,132.4" id="XMLID_110_" fill="#EAEAD7"></path>
                        <path d="M417.526786,132.4 C406.125411,132.4 396.857143,123.123725 396.857143,111.7125 C396.857143,100.301275 406.125411,91.025 417.526786,91.025 C428.928161,91.025 438.196429,100.301275 438.196429,111.7125 C438.196429,123.123725 428.928161,132.4 417.526786,132.4" id="XMLID_109_" fill="#EAEAD7"></path>
                        <path d="M45.4732143,306.175 C34.0718393,306.175 24.8035714,296.898725 24.8035714,285.4875 C24.8035714,274.076275 34.0718393,264.8 45.4732143,264.8 C56.8745893,264.8 66.1428571,274.076275 66.1428571,285.4875 C66.1428571,296.898725 56.8745893,306.175 45.4732143,306.175" id="XMLID_108_" fill="#EAEAD7"></path>
                        <path d="M417.526786,306.175 C406.125411,306.175 396.857143,296.898725 396.857143,285.4875 C396.857143,274.076275 406.125411,264.8 417.526786,264.8 C428.928161,264.8 438.196429,274.076275 438.196429,285.4875 C438.196429,296.898725 428.928161,306.175 417.526786,306.175" id="XMLID_107_" fill="#EAEAD7"></path>
                        <polygon id="XMLID_106_" fill="#83C38E" points="41.3392857 0 41.3392857 35.086 429.928571 66.2 454.732143 66.2"></polygon>
                        <path d="M277.535429,223.631875 C283.405607,221.811375 287.721429,216.382975 287.721429,209.928475 L287.721429,202.729225 C287.721429,197.2098 284.546571,192.4434 279.966179,190.0271 C276.791321,162.93475 258.899679,151.970375 230.135804,151.970375 C228.779875,151.970375 227.440482,152.020025 226.134161,152.1276 C216.353286,152.90545 206.464929,151.0684 198.337625,145.582075 C194.956071,143.298175 192.111929,140.881875 190.111107,138.333175 C189.193375,137.174675 187.366179,137.91115 187.539804,139.3841 C187.829179,141.8997 188.250839,144.8456 188.895732,148.0563 C191.268607,160.013675 189.846536,158.26765 185.224804,169.55475 C182.670036,175.7941 181.024732,182.720275 180.255821,190.051925 C175.7085,192.484775 172.550179,197.22635 172.550179,202.729225 L172.550179,209.928475 C172.550179,216.382975 176.874268,221.811375 182.736179,223.631875 C186.630339,238.212425 194.625357,249.8719 208.540161,255.871275 L208.540161,264.12145 C208.540161,266.231575 207.341321,268.151375 205.45625,269.08645 L177.667982,282.78985 C175.262036,284.0973 173.27775,285.892975 171.508429,287.8707 C188.639429,299.4226 209.284268,306.175 231.5,306.175 C252.888946,306.175 272.773143,299.844625 289.515554,289.0623 C287.456857,286.56325 284.869018,284.47795 281.859518,282.9719 L254.749214,269.103 C252.897214,268.15965 251.731446,266.2564 251.731446,264.179375 L251.731446,255.871275 C265.64625,249.8719 273.641268,238.212425 277.535429,223.631875" id="XMLID_105_" fill="#EAEAD7"></path>
                    </g>
                </g>
            </g>
            <g id="hourglass-(1)" transform="translate(0.000000, 165.000000)">
                <g id="Capa_1">
                    <path d="M188.70784,113.426133 C198.7584,106.701467 204.8,95.3876 204.8,83.2729333 L204.8,25.6666667 L51.2,25.6666667 L51.2,83.2729333 C51.2,95.3876 57.2416,106.701467 67.29216,113.426133 L117.76,147.157267 L117.76,160.847867 L67.29216,194.579 C57.2416,201.298533 51.2,212.6124 51.2,224.727067 L51.2,282.333333 L204.8,282.333333 L204.8,224.727067 C204.8,212.6124 198.7584,201.298533 188.70784,194.573867 L138.24,160.842733 L138.24,147.152133 L188.70784,113.426133 L188.70784,113.426133 Z" id="Shape" fill="#00BBBA"></path>
                    <path d="M180.18304,100.613333 C185.97888,96.7376667 189.44,90.2542667 189.44,83.2780667 L189.44,83.2780667 C189.44,76.5739333 184.88832,70.7270667 178.40128,69.0998 L101.32992,49.7830667 C83.67104,45.353 66.56,58.7458667 66.56,77 L66.56,83.2780667 C66.56,90.2542667 70.02112,96.7376667 75.81696,100.613333 L122.88,135.2428 L122.88,216.744733 C122.88,235.378733 103.60832,247.729533 86.74304,239.9012 L86.74304,239.9012 C77.66016,235.686733 66.6624,241.923733 66.56512,251.9594 L66.56512,252.169867 L66.56512,282.333333 L189.44512,282.333333 L189.44512,224.721933 L189.44512,224.511467 C189.34784,214.599 179.77344,207.458533 170.0352,209.157667 L159.54432,210.990267 C145.74592,213.3978 133.12,202.751267 133.12,188.716733 L133.12,135.2428 L180.18304,100.613333 L180.18304,100.613333 Z" id="Shape" fill="#424A60"></path>
                    <rect id="Rectangle-path" fill="#00BBBA" x="25.6" y="282.333333" width="204.8" height="20.5333333"></rect>
                    <path d="M250.88,297.733333 L235.52,297.733333 L235.52,277.2 L20.48,277.2 L20.48,297.733333 L5.12,297.733333 C2.29376,297.733333 0,300.027933 0,302.866667 C0,305.7054 2.29376,308 5.12,308 L20.48,308 L25.6,308 L230.4,308 L235.52,308 L250.88,308 C253.70624,308 256,305.7054 256,302.866667 C256,300.027933 253.70624,297.733333 250.88,297.733333 L250.88,297.733333 Z M30.72,287.466667 L225.28,287.466667 L225.28,297.733333 L30.72,297.733333 L30.72,287.466667 L30.72,287.466667 Z" id="Shape" fill="#029494"></path>
                    <rect id="Rectangle-path" fill="#00BBBA" x="25.6" y="5.13333333" width="204.8" height="20.5333333"></rect>
                    <path d="M250.88,0 L235.52,0 L230.4,0 L25.6,0 L20.48,0 L5.12,0 C2.29376,0 0,2.2946 0,5.13333333 C0,7.97206667 2.29376,10.2666667 5.12,10.2666667 L20.48,10.2666667 L20.48,30.8 L235.52,30.8 L235.52,10.2666667 L250.88,10.2666667 C253.70624,10.2666667 256,7.97206667 256,5.13333333 C256,2.2946 253.70624,0 250.88,0 L250.88,0 Z M225.28,20.5333333 L30.72,20.5333333 L30.72,10.2666667 L225.28,10.2666667 L225.28,20.5333333 L225.28,20.5333333 Z" id="Shape" fill="#029494"></path>
                    <path d="M102.39488,123.2 C101.42208,123.2 100.43392,122.917667 99.5584,122.3376 L75.81184,106.465333 C70.02112,102.5948 66.56,96.1165333 66.56,89.1249333 L66.56,77.7186667 C66.56,74.8799333 68.85376,72.5853333 71.68,72.5853333 C74.50624,72.5853333 76.8,74.8799333 76.8,77.7186667 L76.8,89.1249333 C76.8,92.6669333 78.55616,95.9574 81.49504,97.9234667 L105.2416,113.795733 C107.59168,115.371667 108.22656,118.554333 106.65984,120.915667 C105.67168,122.3992 104.04864,123.2 102.39488,123.2 L102.39488,123.2 Z" id="Shape" fill="#7FABDA"></path>
                    <path d="M184.32,236.133333 C181.49376,236.133333 179.2,233.838733 179.2,231 L179.2,219.593733 C179.2,216.051733 177.44384,212.761267 174.50496,210.7952 L150.7584,194.922933 C148.40832,193.347 147.77344,190.164333 149.34016,187.803 C150.912,185.441667 154.08128,184.805133 156.4416,186.381067 L180.18816,202.253333 C185.97888,206.123867 189.44,212.607267 189.44,219.593733 L189.44,231 C189.44,233.838733 187.14624,236.133333 184.32,236.133333 L184.32,236.133333 Z" id="Shape" fill="#7FABDA"></path>
                </g>
            </g>
        </g>
    </g>
</svg>